<svg width="171" height="172" viewBox="0 0 171 172" fill="none" xmlns="http://www.w3.org/2000/svg">
<path d="M0 171.685V0.198853H171V171.685H0Z" fill="#FFD600"/>
<path d="M111.806 128.561C115.093 133.915 118.665 139.045 126.231 139.045C132.587 139.045 135.921 135.877 135.921 131.495C135.921 126.25 132.473 124.388 125.481 121.335L121.648 119.696C110.585 114.99 103.227 109.092 103.227 96.6358C103.227 85.1558 111.991 76.4196 125.685 76.4196C135.437 76.4196 142.443 79.8064 147.497 88.676L135.556 96.331C132.929 91.6246 130.088 89.7716 125.685 89.7716C121.192 89.7716 118.346 92.6154 118.346 96.331C118.346 100.923 121.196 102.781 127.775 105.625L131.608 107.263C144.647 112.832 152 118.519 152 131.305C152 145.081 141.151 152.631 126.588 152.631C112.342 152.631 104.253 145.462 99.75 136.587L111.806 128.561ZM56.772 128.951C59.1755 133.267 62.8283 136.587 68.0818 136.587C73.1073 136.587 76 134.596 76 126.855V76.4148H91.8318V129.294C91.8318 145.333 82.555 152.631 69.008 152.631C56.7673 152.631 47.9323 144.314 44.3318 136.587L56.772 128.951Z" fill="#000001"/>
</svg>
