<svg width="171" height="191" viewBox="0 0 171 191" fill="none" xmlns="http://www.w3.org/2000/svg">
<path d="M171 63.5249C171 161.177 85.5 190.71 85.5 190.71C85.5 190.71 0 161.177 0 63.5249C0 51.6161 0.95 41.6128 1.9 33.5149C3.325 21.6061 11.4 12.0791 22.8 9.22105C37.525 4.93391 60.8 0.17041 85.5 0.17041C110.2 0.17041 133.475 4.93391 148.675 9.22105C160.075 12.0791 168.15 22.0825 169.575 33.5149C170.05 41.6128 171 52.0925 171 63.5249Z" fill="#5D4037"/>
<path d="M85.5 14.4609C108.775 14.4609 130.625 19.2244 144.875 23.0352C150.575 24.4642 154.375 29.2277 155.325 35.4203C156.275 44.4709 156.75 53.9979 156.75 63.5249C156.75 137.835 102.125 167.845 85.5 174.991C68.875 167.369 14.25 137.359 14.25 63.5249C14.25 53.9979 14.725 44.4709 15.675 35.4203C16.15 29.2277 20.425 24.4642 26.125 23.0352C40.375 19.2244 62.225 14.4609 85.5 14.4609ZM85.5 0.17041C60.8 0.17041 37.525 4.93391 22.325 9.22105C11.4 12.0791 2.85 22.0825 1.9 33.5149C0.95 41.6128 0 52.0925 0 63.5249C0 161.177 85.5 190.71 85.5 190.71C85.5 190.71 171 161.177 171 63.5249C171 51.6161 170.05 41.6128 169.1 33.5149C167.675 21.6061 159.6 12.0791 148.2 9.22105C133.475 4.93391 110.2 0.17041 85.5 0.17041Z" fill="#4CAF50"/>
<path d="M80.75 114.494H90.25V152.602H80.75V114.494Z" fill="#DCEDC8"/>
<path d="M85.5 28.7515C85.5 28.7515 57 52.5689 57 90.6769C57 115.447 72.675 131.167 80.75 138.312L85.5 124.021L90.25 138.312C98.325 131.167 114 115.447 114 90.6769C114 52.5689 85.5 28.7515 85.5 28.7515Z" fill="#4CAF50"/>
<path d="M85.5 28.7515C85.5 28.7515 57 52.5689 57 90.6769C57 115.447 72.675 131.167 80.75 138.312L85.5 124.021V28.7515Z" fill="#81C784"/>
</svg>
