<svg width="228" height="229" viewBox="0 0 228 229" fill="none" xmlns="http://www.w3.org/2000/svg">
<path d="M81.719 91.2068L58.4107 104.14C57.5367 104.621 57 105.516 57 106.483V132.363C57 133.33 57.5367 134.221 58.4107 134.707L81.7237 147.649C82.593 148.131 83.6713 148.131 84.5405 147.649L107.849 134.707C108.713 134.221 109.25 133.33 109.25 132.363V106.483C109.25 105.516 108.713 104.626 107.839 104.14L84.5358 91.2068C84.0988 90.9638 83.6095 90.8447 83.125 90.8447C82.6357 90.8447 82.1512 90.9638 81.7142 91.2068M201.642 114.505L197.757 116.658C197.609 116.739 197.524 116.887 197.524 117.049V121.364C197.524 121.526 197.614 121.674 197.757 121.755L201.642 123.913C201.79 123.994 201.965 123.994 202.113 123.913L205.998 121.755C206.141 121.674 206.231 121.526 206.231 121.364V117.049C206.231 116.887 206.141 116.739 205.993 116.658L202.108 114.505C202.036 114.462 201.956 114.443 201.875 114.443C201.794 114.443 201.714 114.462 201.642 114.505Z" fill="#388E3C"/>
<path d="M169.817 63.7786L158.469 57.4289C158.113 57.2288 157.676 57.2336 157.325 57.4432C156.973 57.6528 156.755 58.0291 156.755 58.4388L156.75 96.7944L146.286 90.9877C145.849 90.7448 145.36 90.6257 144.875 90.6257C144.39 90.6257 143.901 90.7448 143.464 90.9877H143.469L120.161 103.921C119.287 104.402 118.75 105.297 118.75 106.259V132.14C118.75 133.107 119.287 133.997 120.161 134.483L143.474 147.426C144.343 147.907 145.421 147.907 146.291 147.426L169.599 134.483C170.463 134.002 171 133.107 171 132.14V65.7984C171 64.96 170.544 64.1883 169.817 63.7786ZM156.114 126.152L145.521 132.035C145.127 132.254 144.638 132.254 144.243 132.035L133.646 126.152C133.242 125.933 133 125.523 133 125.085V113.319C133 112.881 133.242 112.476 133.641 112.252L144.238 106.374C144.438 106.264 144.652 106.212 144.875 106.212C145.098 106.212 145.317 106.269 145.516 106.374L156.109 112.252C156.508 112.476 156.75 112.886 156.75 113.324V125.09C156.75 125.523 156.508 125.933 156.114 126.152Z" fill="#37474F"/>
<path d="M81.719 91.2068L57 132.363C57 133.33 57.5367 134.221 58.4107 134.707L81.7237 147.649C82.593 148.131 83.6713 148.131 84.5405 147.649L109.25 106.483C109.25 105.516 108.713 104.626 107.839 104.14L84.5358 91.2068C84.0988 90.9638 83.6095 90.8447 83.125 90.8447C82.6357 90.8447 82.1512 90.9638 81.7142 91.2068" fill="#2E7D32"/>
<path d="M81.719 91.2068L58.4107 104.14C57.5367 104.621 57 105.516 57 106.483L81.719 147.649C82.5883 148.131 83.6665 148.131 84.5358 147.649L107.844 134.707C108.713 134.221 109.25 133.33 109.25 132.363L84.5358 91.2068C84.0988 90.9638 83.6095 90.8447 83.125 90.8447C82.6357 90.8447 82.1512 90.9638 81.7142 91.2068" fill="#4CAF50"/>
<path d="M226.589 103.921L203.286 90.9876C202.849 90.7447 202.359 90.6256 201.875 90.6256C201.391 90.6256 200.901 90.7447 200.464 90.9876L177.161 103.921C176.292 104.402 175.75 105.316 175.75 106.317V132.092C175.75 133.087 176.292 134.007 177.161 134.488L200.474 147.43C201.348 147.916 202.417 147.916 203.29 147.43L214.04 141.462C215.023 140.914 215.018 139.499 214.03 138.956L190.641 126.157C190.247 125.933 190 125.518 190 125.07V113.324C190 112.885 190.238 112.481 190.618 112.271L201.234 106.383H201.229C201.428 106.274 201.647 106.221 201.87 106.221C202.094 106.221 202.312 106.278 202.511 106.383L213.128 112.276C213.508 112.485 213.745 112.89 213.745 113.328V122.913C213.745 123.322 213.964 123.703 214.32 123.908C214.676 124.108 215.113 124.108 215.469 123.903L226.86 117.268C227.563 116.858 228 116.101 228 115.281V106.326C228 105.321 227.458 104.402 226.589 103.921ZM50.8392 103.921L27.5357 90.9876C27.0987 90.7447 26.6095 90.6256 26.125 90.6256C25.6405 90.6256 25.1513 90.7447 24.7143 90.9876L1.41075 103.921C0.5415 104.402 0 105.316 0 106.317V141.876C0 142.286 0.2185 142.667 0.57475 142.872C0.931 143.072 1.368 143.072 1.72425 142.867L13.1147 136.231C13.8177 135.822 14.25 135.064 14.25 134.245V113.319C14.25 112.881 14.4875 112.476 14.8675 112.266L25.4837 106.378C25.6832 106.269 25.9018 106.217 26.125 106.217C26.3482 106.217 26.5668 106.274 26.7663 106.378L37.3825 112.271C37.7625 112.481 38 112.885 38 113.324V134.25C38 135.069 38.4322 135.826 39.14 136.236L50.5305 142.872C50.8867 143.076 51.3237 143.076 51.68 142.876C52.0315 142.667 52.25 142.286 52.25 141.876V106.321C52.25 105.321 51.7085 104.402 50.8392 103.921Z" fill="#37474F"/>
</svg>
