<svg width="181" height="182" viewBox="0 0 181 182" fill="none" xmlns="http://www.w3.org/2000/svg">
<path d="M92.5511 0.000348531C85.1649 0.024166 80.0444 0.676765 73.8551 1.74855C55.5771 4.94009 52.2474 11.6423 52.2474 23.9941V42.8718H94.9974V52.3988H50.6229H29.9604C17.4394 52.3988 6.48114 58.3151 3.00889 72.496C-0.914608 88.7728 -1.09036 98.9667 3.00889 115.963C6.12014 128.639 12.9744 138.142 25.5001 138.142H42.7521V113.829C42.7521 99.7003 55.5106 85.7433 70.1311 85.7433H104.502C116.486 85.7433 128.252 76.8736 128.252 64.8934V23.9941C128.252 12.3759 119.897 3.68729 108.217 1.73902C108.506 1.71044 99.8756 -0.0282324 92.5511 0.000348531ZM68.8771 19.0543C72.7769 19.0543 76.0021 22.2792 76.0021 26.2091C76.0021 30.1771 72.7769 33.3448 68.8771 33.3448C64.9014 33.3448 61.7521 30.1819 61.7521 26.2091C61.7521 22.2935 64.9014 19.0543 68.8771 19.0543Z" fill="#0277BD"/>
<path d="M87.9484 181.013C95.3347 180.989 100.455 180.337 106.644 179.265C124.922 176.073 128.252 169.371 128.252 157.019V138.142H85.5022V128.615H129.881H150.544C163.065 128.615 174.023 122.698 177.495 108.518C181.419 92.2407 181.595 82.0468 177.495 65.0507C174.379 52.375 167.525 42.8718 154.999 42.8718H137.747V67.1847C137.747 81.3132 124.989 95.2703 110.368 95.2703H75.9974C64.0132 95.2703 52.2474 104.14 52.2474 116.12V157.019C52.2474 168.638 60.6027 177.326 72.2829 179.274C71.9932 179.303 80.6239 181.042 87.9484 181.013ZM111.627 161.959C107.727 161.959 104.502 158.734 104.502 154.804C104.502 150.836 107.727 147.669 111.627 147.669C115.603 147.669 118.752 150.832 118.752 154.804C118.752 158.72 115.598 161.959 111.627 161.959Z" fill="#FFC107"/>
</svg>
