<svg width="228" height="229" viewBox="0 0 228 229" fill="none" xmlns="http://www.w3.org/2000/svg">
<path d="M114 162.092C52.725 162.092 4.75 141.133 4.75 114.457C4.75 87.7819 52.725 66.8225 114 66.8225C175.275 66.8225 223.25 87.7819 223.25 114.457C223.25 141.133 175.275 162.092 114 162.092ZM114 76.3495C54.15 76.3495 14.25 95.8798 14.25 114.457C14.25 133.035 54.15 152.565 114 152.565C173.85 152.565 213.75 133.035 213.75 114.457C213.75 95.8798 173.85 76.3495 114 76.3495Z" fill="#80DEEA"/>
<path d="M71.725 212.585C66.975 212.585 63.175 211.633 59.375 209.251C36.1 195.913 42.275 143.991 72.675 90.6399C86.925 65.8697 104.5 44.9103 121.6 31.5726C140.125 17.2821 156.75 12.9949 168.15 19.6638C180.025 26.3327 184.3 43.0049 181.45 66.3461C178.6 88.2581 169.1 113.981 154.85 138.751C140.6 163.521 123.025 184.481 105.925 197.818C93.575 207.345 81.7 212.585 71.725 212.585ZM156.275 25.8564C148.675 25.8564 138.7 30.1435 127.775 38.7178C111.625 51.5792 95 71.5859 81.225 95.4034C51.3 147.325 48.45 192.102 64.125 201.153C72.2 205.916 85.5 201.629 100.225 190.197C116.375 177.335 133 157.329 146.775 133.511C160.55 109.694 169.575 85.4 172.425 64.917C174.8 45.863 171.95 32.5253 163.875 27.7618C161.5 26.8091 159.125 25.8564 156.275 25.8564Z" fill="#80DEEA"/>
<path d="M156.75 212.585C133 212.585 98.8 183.528 73.15 138.275C42.275 84.9238 36.1 33.0017 59.375 19.6639C82.65 6.32612 124.45 37.2888 155.325 90.64C169.575 115.41 179.075 141.133 181.925 163.045C185.25 186.386 180.5 202.582 168.625 209.727C164.825 211.633 161.025 212.585 156.75 212.585ZM64.125 27.7618C48.45 36.8125 51.3 81.5893 81.225 133.511C111.15 185.433 148.2 210.204 163.875 201.153C171.95 196.39 174.8 183.052 172.425 163.998C169.575 143.515 160.55 119.221 146.775 95.4035C116.85 43.4814 79.8 18.7112 64.125 27.7618Z" fill="#80DEEA"/>
<path d="M114 133.511C124.493 133.511 133 124.981 133 114.457C133 103.934 124.493 95.4034 114 95.4034C103.507 95.4034 95 103.934 95 114.457C95 124.981 103.507 133.511 114 133.511Z" fill="#80DEEA"/>
</svg>
