<svg width="553" height="552" viewBox="0 0 553 552" fill="none" xmlns="http://www.w3.org/2000/svg">
<g clip-path="url(#clip0_589_5)">
<path d="M433.02 257.206V278.202C433.02 288.665 446.583 285.178 446.583 294.477V299.128V281.294C446.583 272.377 455.215 275.721 455.215 265.689V244.875M433.02 257.206L441.651 264.604M433.02 257.206L424.389 264.604M455.215 244.875L446.583 252.273M455.215 244.875L463.846 252.273" stroke="#838383" stroke-opacity="0.37" stroke-width="2"/>
</g>
<g clip-path="url(#clip1_589_5)">
<path d="M512.615 65.4862C514.804 65.4862 516.578 63.7117 516.578 61.5229C516.578 59.334 514.804 57.5596 512.615 57.5596C510.426 57.5596 508.651 59.334 508.651 61.5229C508.651 63.7117 510.426 65.4862 512.615 65.4862Z" fill="#838383" fill-opacity="0.37"/>
<path d="M512.615 25.8531C514.804 25.8531 516.578 24.0787 516.578 21.8898C516.578 19.7009 514.804 17.9265 512.615 17.9265C510.426 17.9265 508.651 19.7009 508.651 21.8898C508.651 24.0787 510.426 25.8531 512.615 25.8531Z" fill="#838383" fill-opacity="0.37"/>
<path d="M478.927 45.6698C481.115 45.6698 482.89 43.8953 482.89 41.7065C482.89 39.5176 481.115 37.7432 478.927 37.7432C476.738 37.7432 474.963 39.5176 474.963 41.7065C474.963 43.8953 476.738 45.6698 478.927 45.6698Z" fill="#838383" fill-opacity="0.37"/>
<path d="M526.488 33.7799C524.735 33.7851 523.034 34.3716 521.65 35.4474C520.267 36.5232 519.279 38.0276 518.843 39.7249H510.353C510.072 38.6073 509.549 37.5651 508.821 36.6722C508.093 35.7792 507.177 35.0573 506.139 34.5576C505.1 34.0578 503.965 33.7925 502.813 33.7804C501.661 33.7682 500.52 34.0096 499.471 34.4873L493.175 26.6202C494.211 25.2602 494.774 23.5994 494.78 21.89C494.78 20.3223 494.316 18.7897 493.444 17.4862C492.573 16.1827 491.335 15.1667 489.887 14.5668C488.439 13.9668 486.845 13.8098 485.307 14.1157C483.769 14.4215 482.357 15.1765 481.248 16.285C480.14 17.3936 479.385 18.806 479.079 20.3436C478.773 21.8812 478.93 23.475 479.53 24.9234C480.13 26.3718 481.146 27.6097 482.45 28.4807C483.753 29.3517 485.286 29.8166 486.854 29.8166C487.971 29.814 489.075 29.5728 490.092 29.1091L496.386 36.9763C495.345 38.3337 494.781 39.9963 494.781 41.7065C494.781 43.4167 495.345 45.0793 496.386 46.4367L490.092 54.3039C489.075 53.8402 487.971 53.599 486.854 53.5964C485.286 53.5964 483.753 54.0613 482.45 54.9323C481.146 55.8033 480.13 57.0412 479.53 58.4896C478.93 59.938 478.773 61.5318 479.079 63.0694C479.385 64.607 480.14 66.0194 481.248 67.128C482.357 68.2365 483.769 68.9915 485.307 69.2973C486.845 69.6032 488.439 69.4462 489.887 68.8462C491.335 68.2463 492.573 67.2303 493.444 65.9268C494.316 64.6233 494.78 63.0908 494.78 61.523C494.775 59.8136 494.211 58.1528 493.175 56.7928L499.469 48.9257C500.518 49.4038 501.659 49.6454 502.811 49.6335C503.964 49.6215 505.1 49.3563 506.138 48.8565C507.177 48.3567 508.092 47.6347 508.821 46.7415C509.549 45.8484 510.072 44.806 510.353 43.6882H518.843C519.216 45.12 519.983 46.4185 521.057 47.4363C522.131 48.4541 523.469 49.1503 524.919 49.4459C526.369 49.7415 527.873 49.6246 529.26 49.1085C530.646 48.5925 531.861 47.6979 532.765 46.5264C533.669 45.3549 534.226 43.9535 534.373 42.4811C534.521 41.0088 534.253 39.5246 533.599 38.1972C532.945 36.8697 531.932 35.7521 530.675 34.9713C529.418 34.1904 527.968 33.7777 526.488 33.7799ZM482.89 21.89C482.89 21.1061 483.123 20.3399 483.558 19.6881C483.994 19.0363 484.613 18.5283 485.337 18.2284C486.061 17.9284 486.858 17.8499 487.627 18.0028C488.396 18.1558 489.102 18.5332 489.656 19.0875C490.21 19.6418 490.588 20.348 490.741 21.1168C490.894 21.8856 490.815 22.6825 490.515 23.4067C490.215 24.1309 489.707 24.7499 489.055 25.1854C488.404 25.6208 487.637 25.8533 486.854 25.8533C485.803 25.8522 484.795 25.4343 484.052 24.6913C483.309 23.9483 482.891 22.9408 482.89 21.89ZM486.854 65.4863C486.07 65.4863 485.303 65.2539 484.652 64.8184C484 64.3829 483.492 63.7639 483.192 63.0397C482.892 62.3155 482.813 61.5186 482.966 60.7498C483.119 59.981 483.497 59.2748 484.051 58.7205C484.605 58.1663 485.311 57.7888 486.08 57.6359C486.849 57.4829 487.646 57.5614 488.37 57.8614C489.094 58.1614 489.713 58.6694 490.149 59.3211C490.585 59.9729 490.817 60.7392 490.817 61.523C490.816 62.5738 490.398 63.5813 489.655 64.3243C488.912 65.0674 487.904 65.4853 486.854 65.4863ZM502.707 45.6698C501.923 45.6698 501.157 45.4374 500.505 45.0019C499.854 44.5664 499.346 43.9474 499.046 43.2232C498.746 42.499 498.667 41.7021 498.82 40.9333C498.973 40.1645 499.35 39.4583 499.905 38.904C500.459 38.3497 501.165 37.9723 501.934 37.8194C502.703 37.6664 503.5 37.7449 504.224 38.0449C504.948 38.3449 505.567 38.8528 506.003 39.5046C506.438 40.1564 506.671 40.9226 506.671 41.7065C506.67 42.7573 506.252 43.7648 505.509 44.5078C504.766 45.2509 503.758 45.6688 502.707 45.6698ZM526.488 45.6698C525.704 45.6698 524.938 45.4374 524.286 45.0019C523.634 44.5664 523.126 43.9474 522.826 43.2232C522.526 42.499 522.448 41.7021 522.601 40.9333C522.754 40.1645 523.131 39.4583 523.685 38.904C524.24 38.3497 524.946 37.9723 525.715 37.8194C526.484 37.6664 527.281 37.7449 528.005 38.0449C528.729 38.3449 529.348 38.8528 529.784 39.5046C530.219 40.1564 530.451 40.9226 530.451 41.7065C530.45 42.7573 530.033 43.7648 529.289 44.5078C528.546 45.2509 527.539 45.6688 526.488 45.6698Z" fill="#838383" fill-opacity="0.37"/>
</g>
<path d="M347.192 431.233H360.255C360.873 433.63 362.344 435.72 364.391 437.109C366.438 438.499 368.921 439.093 371.374 438.781C373.828 438.469 376.083 437.272 377.718 435.414C379.353 433.557 380.255 431.166 380.255 428.69C380.255 426.214 379.353 423.823 377.718 421.965C376.083 420.108 373.828 418.91 371.374 418.598C368.921 418.286 366.438 418.881 364.391 420.271C362.344 421.66 360.873 423.749 360.255 426.147H347.192V405.802H360.255C360.873 408.199 362.344 410.288 364.391 411.678C366.438 413.068 368.921 413.662 371.374 413.35C373.828 413.038 376.083 411.841 377.718 409.983C379.353 408.126 380.255 405.735 380.255 403.259C380.255 400.783 379.353 398.392 377.718 396.534C376.083 394.676 373.828 393.479 371.374 393.167C368.921 392.855 366.438 393.45 364.391 394.839C362.344 396.229 360.873 398.318 360.255 400.716H347.192C345.845 400.717 344.554 401.253 343.601 402.207C342.648 403.16 342.113 404.453 342.111 405.802V426.147H329.049C328.43 423.749 326.96 421.66 324.913 420.271C322.866 418.881 320.383 418.286 317.929 418.598C315.476 418.91 313.22 420.108 311.585 421.965C309.95 423.823 309.048 426.214 309.048 428.69C309.048 431.166 309.95 433.557 311.585 435.414C313.22 437.272 315.476 438.469 317.929 438.781C320.383 439.093 322.866 438.499 324.913 437.109C326.96 435.72 328.43 433.63 329.049 431.233H342.111V451.578C342.113 452.926 342.648 454.219 343.601 455.173C344.554 456.127 345.845 456.663 347.192 456.664H360.255C360.873 459.061 362.344 461.151 364.391 462.54C366.438 463.93 368.921 464.524 371.374 464.212C373.828 463.9 376.083 462.703 377.718 460.846C379.353 458.988 380.255 456.597 380.255 454.121C380.255 451.645 379.353 449.254 377.718 447.396C376.083 445.539 373.828 444.342 371.374 444.03C368.921 443.718 366.438 444.312 364.391 445.702C362.344 447.091 360.873 449.181 360.255 451.578H347.192V431.233ZM370.056 423.604C371.061 423.604 372.043 423.902 372.879 424.461C373.714 425.02 374.365 425.814 374.75 426.743C375.134 427.673 375.235 428.696 375.039 429.682C374.843 430.669 374.359 431.575 373.648 432.286C372.938 432.998 372.033 433.482 371.047 433.678C370.061 433.875 369.04 433.774 368.111 433.389C367.183 433.004 366.39 432.352 365.831 431.516C365.273 430.679 364.975 429.696 364.975 428.69C364.976 427.341 365.512 426.048 366.465 425.095C367.417 424.141 368.709 423.605 370.056 423.604ZM370.056 398.172C371.061 398.172 372.043 398.471 372.879 399.03C373.714 399.589 374.365 400.383 374.75 401.312C375.134 402.242 375.235 403.264 375.039 404.251C374.843 405.238 374.359 406.144 373.648 406.855C372.938 407.567 372.033 408.051 371.047 408.247C370.061 408.443 369.04 408.343 368.111 407.958C367.183 407.573 366.39 406.921 365.831 406.084C365.273 405.248 364.975 404.265 364.975 403.259C364.976 401.91 365.512 400.617 366.465 399.664C367.417 398.71 368.709 398.174 370.056 398.172ZM319.248 433.776C318.243 433.776 317.261 433.478 316.425 432.919C315.59 432.36 314.938 431.566 314.554 430.636C314.169 429.707 314.069 428.684 314.265 427.698C314.461 426.711 314.945 425.805 315.655 425.093C316.366 424.382 317.271 423.898 318.257 423.701C319.242 423.505 320.264 423.606 321.192 423.991C322.121 424.376 322.914 425.028 323.472 425.864C324.031 426.701 324.329 427.684 324.329 428.69C324.327 430.038 323.792 431.331 322.839 432.285C321.886 433.238 320.595 433.775 319.248 433.776ZM370.056 449.035C371.061 449.035 372.043 449.333 372.879 449.892C373.714 450.451 374.365 451.245 374.75 452.175C375.134 453.104 375.235 454.127 375.039 455.113C374.843 456.1 374.359 457.006 373.648 457.718C372.938 458.429 372.033 458.913 371.047 459.11C370.061 459.306 369.04 459.205 368.111 458.82C367.183 458.435 366.39 457.783 365.831 456.947C365.273 456.11 364.975 455.127 364.975 454.121C364.976 452.773 365.512 451.48 366.465 450.526C367.417 449.572 368.709 449.036 370.056 449.035Z" fill="#838383" fill-opacity="0.37"/>
<path d="M445.365 189.121C448.167 189.121 450.438 186.849 450.438 184.048C450.438 181.246 448.167 178.975 445.365 178.975C442.563 178.975 440.292 181.246 440.292 184.048C440.292 186.849 442.563 189.121 445.365 189.121Z" fill="#838383" fill-opacity="0.37"/>
<path d="M422.537 164.77C425.393 161.261 428.906 158.451 432.842 156.527C436.778 154.602 441.047 153.606 445.365 153.606C449.684 153.606 453.953 154.602 457.889 156.527C461.825 158.451 465.337 161.261 468.194 164.77L464.389 168.321C462.009 165.325 459.081 162.926 455.801 161.282C452.521 159.639 448.964 158.789 445.365 158.789C441.766 158.789 438.209 159.639 434.929 161.282C431.649 162.926 428.722 165.325 426.341 168.321L422.537 164.77ZM431.922 172.887C433.588 170.827 435.666 169.171 438.01 168.036C440.354 166.9 442.907 166.311 445.492 166.311C448.077 166.311 450.63 166.9 452.974 168.036C455.318 169.171 457.396 170.827 459.062 172.887L455.511 176.438C454.323 174.868 452.817 173.601 451.105 172.73C449.393 171.859 447.518 171.407 445.619 171.407C443.72 171.407 441.845 171.859 440.133 172.73C438.421 173.601 436.915 174.868 435.726 176.438L431.922 172.887Z" fill="#838383" fill-opacity="0.37"/>
<path d="M495.117 377.763L482.707 388.105L495.117 398.446C495.371 398.649 495.581 398.901 495.736 399.186C495.892 399.472 495.989 399.785 496.021 400.109C496.054 400.432 496.022 400.759 495.926 401.069C495.831 401.38 495.675 401.669 495.467 401.918C495.259 402.168 495.003 402.374 494.715 402.523C494.426 402.673 494.111 402.764 493.787 402.79C493.463 402.816 493.137 402.778 492.828 402.676C492.52 402.575 492.234 402.414 491.988 402.201L477.324 389.98C477.049 389.751 476.827 389.464 476.675 389.14C476.524 388.815 476.445 388.461 476.445 388.103C476.445 387.745 476.524 387.391 476.675 387.067C476.827 386.742 477.049 386.455 477.324 386.226L491.988 374.006C492.487 373.591 493.129 373.391 493.775 373.45C494.421 373.509 495.017 373.822 495.432 374.32C495.846 374.819 496.046 375.461 495.987 376.107C495.928 376.753 495.615 377.348 495.117 377.763ZM548.887 386.226L534.222 374.006C533.975 373.8 533.691 373.645 533.384 373.55C533.078 373.455 532.755 373.421 532.435 373.45C532.116 373.479 531.805 373.571 531.521 373.72C531.237 373.87 530.985 374.074 530.779 374.32C530.364 374.819 530.164 375.461 530.223 376.107C530.282 376.753 530.595 377.348 531.094 377.763L543.504 388.105L531.094 398.446C530.84 398.649 530.629 398.901 530.474 399.186C530.319 399.472 530.222 399.785 530.189 400.109C530.157 400.432 530.189 400.759 530.284 401.069C530.379 401.38 530.535 401.669 530.743 401.918C530.952 402.168 531.207 402.374 531.496 402.523C531.784 402.673 532.1 402.764 532.424 402.79C532.748 402.816 533.073 402.778 533.382 402.676C533.691 402.575 533.977 402.414 534.222 402.201L548.887 389.98C549.162 389.751 549.383 389.464 549.535 389.14C549.687 388.815 549.766 388.461 549.766 388.103C549.766 387.745 549.687 387.391 549.535 387.067C549.383 386.742 549.162 386.455 548.887 386.226ZM523.716 358.923C523.414 358.813 523.094 358.764 522.773 358.779C522.452 358.793 522.138 358.87 521.847 359.006C521.556 359.142 521.295 359.334 521.078 359.571C520.862 359.807 520.694 360.085 520.584 360.386L501.032 414.155C500.922 414.457 500.872 414.778 500.886 415.098C500.9 415.419 500.977 415.735 501.113 416.026C501.249 416.317 501.441 416.578 501.678 416.795C501.915 417.012 502.193 417.18 502.495 417.29C502.763 417.385 503.045 417.433 503.329 417.433C503.831 417.433 504.321 417.279 504.732 416.991C505.143 416.702 505.455 416.295 505.626 415.823L525.179 362.054C525.289 361.753 525.338 361.432 525.323 361.112C525.309 360.791 525.232 360.476 525.096 360.185C524.96 359.895 524.768 359.634 524.531 359.417C524.295 359.2 524.017 359.032 523.716 358.923Z" fill="#838383" fill-opacity="0.37"/>
<path d="M352.444 21.5815L343.416 30.6091L352.444 39.6366M366.888 39.6366L375.916 30.6091L366.888 21.5815" stroke="#838383" stroke-opacity="0.37" stroke-width="2" stroke-linecap="round" stroke-linejoin="round"/>
<path d="M251.602 54.8742C251.602 55.2329 251.88 55.5265 252.214 55.5265H267.316C267.651 55.5265 267.929 55.2329 267.929 54.8742V50.9604C267.929 50.6016 267.651 50.3081 267.316 50.3081H252.214C251.88 50.3081 251.602 50.6016 251.602 50.9604V54.8742ZM235.692 55.3715L251.365 42.2441C251.675 41.9832 251.675 41.5021 251.365 41.2412L235.692 28.122C235.597 28.0416 235.481 27.9901 235.358 27.9734C235.235 27.9568 235.11 27.9758 234.997 28.0282C234.885 28.0805 234.789 28.1641 234.723 28.2689C234.656 28.3736 234.622 28.4953 234.622 28.6194V33.7317C234.622 33.9274 234.704 34.1068 234.859 34.2291L243.822 41.7468L234.859 49.2644C234.786 49.3255 234.727 49.4015 234.686 49.4873C234.645 49.5731 234.623 49.6668 234.622 49.7618V54.8742C234.622 55.4286 235.267 55.7303 235.692 55.3715ZM281.317 9.13208H221.234C219.789 9.13208 218.622 10.2981 218.622 11.7413V71.7523C218.622 73.1955 219.789 74.3614 221.234 74.3614H281.317C282.762 74.3614 283.929 73.1955 283.929 71.7523V11.7413C283.929 10.2981 282.762 9.13208 281.317 9.13208ZM278.051 68.4908H224.5V15.0027H278.051V68.4908Z" fill="#838383" fill-opacity="0.37"/>
<g clip-path="url(#clip2_589_5)">
<path d="M64.2178 477.347H59.2832L52.6349 495.578H57.5178L58.873 491.853H64.628L65.9832 495.578H70.8661L64.2178 477.347ZM59.9821 488.814L61.7505 483.971L63.5189 488.817L59.9821 488.814ZM86.8001 477.347H76.1653V495.578H80.7231V489.501H86.8001C87.4017 489.512 87.9994 489.402 88.5574 489.177C89.1154 488.951 89.6223 488.616 90.0478 488.191C90.4733 487.765 90.8086 487.258 91.0337 486.7C91.2588 486.142 91.3691 485.545 91.3579 484.943V481.905C91.3691 481.303 91.2588 480.705 91.0337 480.147C90.8086 479.589 90.4733 479.082 90.0478 478.657C89.6223 478.231 89.1154 477.896 88.5574 477.671C87.9994 477.446 87.4017 477.336 86.8001 477.347ZM86.8001 484.943H80.7231V481.905H86.8001V484.943ZM96.6936 477.347H101.251V495.578H96.6936V477.347Z" fill="#838383" fill-opacity="0.37"/>
<path d="M108.848 468.231V504.694H48.0771V468.231H108.848ZM108.848 462.154H48.0771C46.4653 462.154 44.9196 462.794 43.7799 463.934C42.6403 465.074 42 466.619 42 468.231V504.694C42 506.305 42.6403 507.851 43.7799 508.991C44.9196 510.13 46.4653 510.771 48.0771 510.771H108.848C110.459 510.771 112.005 510.13 113.145 508.991C114.285 507.851 114.925 506.305 114.925 504.694V468.231C114.925 466.619 114.285 465.074 113.145 463.934C112.005 462.794 110.459 462.154 108.848 462.154Z" fill="#838383" fill-opacity="0.37"/>
</g>
<path d="M358.379 212.511C354.876 212.511 351.911 214.667 350.833 217.901H339.514C339.514 216.015 338.975 214.397 338.167 213.05L357.301 193.376C358.11 193.376 358.918 193.646 359.727 193.646C363.5 193.646 366.465 190.681 366.465 186.908C366.465 183.135 363.5 180.17 359.727 180.17C355.954 180.17 352.989 183.135 352.989 186.908C352.989 187.717 353.259 188.795 353.528 189.603L334.663 209.007C333.046 207.66 330.89 207.121 328.734 207.121V195.802C331.968 194.724 334.124 191.759 334.124 188.256C334.124 183.674 330.62 180.17 326.039 180.17C321.457 180.17 317.954 183.674 317.954 188.256C317.954 191.759 320.11 194.724 323.344 195.802V208.468C320.11 210.355 317.954 213.858 317.954 217.632C317.954 223.561 322.805 228.412 328.734 228.412C332.776 228.412 336.28 226.256 337.897 223.022H350.564C351.642 225.986 354.606 228.412 358.11 228.412C362.422 228.412 366.195 224.908 366.195 220.327C366.465 216.015 362.691 212.511 358.379 212.511Z" fill="#838383" fill-opacity="0.37"/>
<path d="M246.11 203.677C250.514 208.081 256.569 205.328 258.22 203.677L261.523 200.374L249.413 188.264L246.11 191.567C244.459 193.218 241.706 199.273 246.11 203.677ZM246.11 203.677L240.605 209.182M274.734 175.053C270.33 170.65 264.275 173.402 262.624 175.053L259.321 178.356L271.431 190.466L274.734 187.163C276.385 185.512 279.138 179.457 274.734 175.053ZM274.734 175.053L280.238 169.549M261.523 180.558L257.119 184.961M269.229 188.264L264.826 192.668" stroke="#838383" stroke-opacity="0.37" stroke-width="1.5" stroke-linecap="round" stroke-linejoin="round"/>
<path d="M285.793 104.943C283.649 104.943 281.912 106.555 281.912 108.543C281.912 108.952 282.001 109.337 282.135 109.703L272.676 117.26C272.012 116.77 271.184 116.464 270.27 116.464C269.215 116.464 268.261 116.857 267.562 117.491L260.153 114.049C260.008 112.182 258.348 110.704 256.299 110.704C254.156 110.704 252.418 112.316 252.418 114.304C252.418 114.848 252.558 115.359 252.791 115.821L245.236 123.903C244.812 123.756 244.36 123.665 243.881 123.665C241.738 123.665 240 125.277 240 127.265C240 129.253 241.738 130.866 243.881 130.866C246.024 130.866 247.761 129.253 247.761 127.265C247.761 126.786 247.656 126.331 247.473 125.913L255.15 117.726C255.516 117.831 255.896 117.904 256.299 117.904C257.428 117.904 258.436 117.449 259.145 116.734L266.393 120.106C266.418 122.074 268.141 123.665 270.27 123.665C272.413 123.665 274.15 122.053 274.15 120.065C274.15 120 274.134 119.941 274.13 119.877L284.225 111.832C284.705 112.029 285.233 112.144 285.793 112.144C287.936 112.144 289.673 110.532 289.673 108.543C289.673 106.555 287.936 104.943 285.793 104.943Z" fill="#838383" fill-opacity="0.37"/>
<path d="M313.663 344.74V337.612C313.759 336.428 313.594 335.237 313.182 334.119C312.769 333.002 312.117 331.982 311.268 331.129C319.267 330.26 327.673 327.305 327.673 313.744C327.673 310.276 326.305 306.941 323.852 304.43C325.014 301.396 324.932 298.043 323.623 295.067C323.623 295.067 320.617 294.197 313.663 298.742C307.824 297.2 301.67 297.2 295.832 298.742C288.877 294.197 285.871 295.067 285.871 295.067C284.563 298.043 284.481 301.396 285.642 304.43C283.171 306.96 281.802 310.325 281.821 313.818C281.821 327.28 290.227 330.235 298.226 331.204C297.388 332.048 296.742 333.055 296.329 334.159C295.916 335.263 295.747 336.44 295.832 337.612V344.74" stroke="#838383" stroke-opacity="0.37" stroke-width="1.5" stroke-linecap="round" stroke-linejoin="round"/>
<path d="M295.831 339.773C288.189 342.189 281.821 339.773 278 332.322" stroke="#838383" stroke-opacity="0.37" stroke-width="1.5" stroke-linecap="round" stroke-linejoin="round"/>
<path d="M102.926 375.981L88.4323 379.81C87.3996 380.083 86.3285 379.473 86.0518 378.455C85.7752 377.437 86.3936 376.38 87.4261 376.108L101.92 372.278C102.953 372.006 104.024 372.615 104.301 373.633C104.578 374.652 103.959 375.708 102.926 375.981ZM96.2155 332.06C96.0857 333.802 95.0863 334.784 93.5346 334.759C91.9897 334.735 90.8654 333.691 90.9025 332.101C90.9384 330.554 91.922 329.538 93.5952 329.556C95.2673 329.574 96.0962 330.548 96.2155 332.06ZM114.797 326.188C109.031 316.798 97.6111 312.236 87.0014 315.292C77.7164 317.967 71.6625 324.012 69.4612 333.309C67.2823 342.511 69.9943 350.426 76.858 357.054C78.4677 358.609 79.9477 360.492 80.8551 362.501C81.7649 364.515 82.0565 365.145 84.2724 364.616C87.3499 363.882 90.3862 362.98 93.4631 362.243C95.0404 361.865 95.6398 360.997 95.6293 359.429C95.5872 353.101 95.6013 346.772 95.6247 340.444C95.6298 339.011 95.1732 337.832 93.6101 337.796C92.0279 337.76 91.5435 338.9 91.5567 340.36C91.5933 344.463 91.5678 348.566 91.5675 352.669C91.5673 359.27 91.5675 359.27 84.9856 360.218C82.4834 357.391 80.2049 354.85 77.9628 352.277C69.916 343.045 71.3876 329.397 81.4306 322.329C88.6458 317.25 96.3966 316.968 104.124 321.256C111.299 325.237 115.203 333.44 114.168 341.376C113.477 346.676 110.91 350.908 107.102 354.545C104.805 356.741 102.711 359.104 101.957 362.278C101.604 363.763 100.76 364.5 99.3015 364.854C99.5741 364.604 83.5799 369.023 83.5799 369.023C82.568 369.29 81.9621 370.325 82.2333 371.323L82.275 371.477C82.5462 372.475 83.5957 373.073 84.6076 372.805C84.6076 372.805 102.959 367.943 103.2 367.876C104.899 367.413 105.824 366.22 105.863 364.517C105.921 361.975 107.041 359.997 108.864 358.308C109.84 357.403 110.812 356.491 111.73 355.531C119.31 347.604 120.561 335.576 114.797 326.188Z" fill="#838383" fill-opacity="0.37"/>
<path d="M54.6145 76.0139C62.0417 76.0139 67.9453 81.9708 67.9453 89.4651C67.9453 94.8456 64.8983 99.4574 60.3277 101.571V110.603H46.9968V104.838H45.0924C42.9976 104.838 41.2836 103.108 41.2836 100.995V95.2299H38.427C37.6653 95.2299 37.0939 94.2691 37.6653 93.6926L41.2836 88.8886C41.6645 81.5865 47.3777 76.0139 54.6145 76.0139ZM54.6145 72.1707C45.8542 72.1707 38.6175 78.7041 37.6653 87.3513L34.6182 91.3867C33.4756 92.924 33.4756 94.8456 34.2373 96.3828C34.9991 97.728 36.1417 98.6888 37.4748 98.8809V100.995C37.4748 104.646 39.9505 107.528 43.188 108.489V114.446H64.1365V103.877C68.8975 100.61 71.7541 95.422 71.7541 89.4651C71.7541 79.8571 64.1365 72.1707 54.6145 72.1707ZM56.5189 97.1515H52.7101V95.2299H56.5189V97.1515ZM59.5659 88.5043C58.9946 89.2729 58.4233 90.0415 57.4711 90.618V93.3083H51.7579V90.618C49.0917 89.0807 48.1395 85.4297 49.663 82.7395C51.1865 80.0492 54.8049 79.0884 57.4711 80.6257C60.1372 82.163 61.0895 85.814 59.5659 88.5043Z" fill="#838383" fill-opacity="0.37"/>
<path d="M60.3277 111.103H60.8277V110.603V101.887C65.414 99.6323 68.4453 94.9253 68.4453 89.4651C68.4453 81.6989 62.322 75.5139 54.6145 75.5139C47.1535 75.5139 41.2591 81.2258 40.7931 88.7088L37.2841 93.3676C36.8382 93.8414 36.8636 94.4602 37.1051 94.9128C37.3443 95.361 37.8328 95.7299 38.427 95.7299H40.7836V100.995C40.7836 103.38 42.7172 105.338 45.0924 105.338H46.4968V110.603V111.103H46.9968H60.3277ZM38.0643 87.6526L38.1472 87.5428L38.1623 87.406C39.0866 79.0113 46.1101 72.6707 54.6145 72.6707C63.8561 72.6707 71.2541 80.129 71.2541 89.4651C71.2541 95.2527 68.4825 100.289 63.8536 103.465L63.6365 103.614V103.877V113.946H43.688V108.489V108.116L43.3303 108.01C40.2831 107.105 37.9748 104.402 37.9748 100.995V98.8809V98.4478L37.5461 98.386C36.417 98.2233 35.3915 97.3999 34.6793 96.1485C33.995 94.7575 34.0076 93.0476 35.0183 91.6865C35.0187 91.686 35.0191 91.6855 35.0195 91.6849L38.0643 87.6526ZM56.9711 92.8083H52.2579V90.618V90.3292L52.0076 90.1849C49.5857 88.7884 48.7062 85.4436 50.0981 82.9859C51.4832 80.54 54.7929 79.6587 57.2213 81.0589C59.6345 82.4503 60.5164 85.7763 59.1457 88.2315C58.5778 88.9952 58.0605 89.6767 57.2121 90.1903L56.9711 90.3362V90.618V92.8083ZM53.2101 96.6515V95.7299H56.0189V96.6515H53.2101Z" stroke="#838383" stroke-opacity="0.37"/>
<g clip-path="url(#clip3_589_5)">
<path d="M11.8111 182.068V206.595H47.4073V182.068H11.8111ZM48.3429 179C49.3775 179 50.2163 179.916 50.2163 181.045V207.617C50.2163 208.747 49.3775 209.662 48.3409 209.662L30.7612 209.66V216.834H37.8446C38.6216 216.834 39.2501 217.522 39.2501 218.367C39.2493 218.57 39.2123 218.77 39.1412 218.957C39.0701 219.144 38.9663 219.313 38.8358 219.456C38.7052 219.598 38.5505 219.711 38.3804 219.787C38.2104 219.864 38.0283 219.902 37.8446 219.901H21.3263C21.1427 219.902 20.9606 219.864 20.7905 219.787C20.6204 219.711 20.4657 219.598 20.3352 219.456C20.2046 219.313 20.1008 219.144 20.0297 218.957C19.9586 218.77 19.9216 218.57 19.9208 218.367C19.9208 217.522 20.5514 216.836 21.3263 216.836L27.9543 216.834V209.66H10.8734C10.3796 209.663 9.90495 209.45 9.55368 209.067C9.20242 208.685 9.00327 208.164 9 207.62V181.045C9 179.916 9.83879 179 10.8754 179H48.3429Z" fill="#838383" fill-opacity="0.37"/>
</g>
<path d="M160.156 58.0469H156.734V29.5312C156.734 28.0187 156.134 26.5681 155.064 25.4985C153.994 24.429 152.544 23.8281 151.031 23.8281H109.969C108.456 23.8281 107.006 24.429 105.936 25.4985C104.866 26.5681 104.266 28.0187 104.266 29.5312V58.0469H100.844C100.541 58.0469 100.251 58.167 100.037 58.381C99.8233 58.5949 99.7031 58.885 99.7031 59.1875V63.75C99.7031 65.2626 100.304 66.7132 101.374 67.7827C102.443 68.8523 103.894 69.4531 105.406 69.4531H155.594C157.106 69.4531 158.557 68.8523 159.626 67.7827C160.696 66.7132 161.297 65.2626 161.297 63.75V59.1875C161.297 58.885 161.177 58.5949 160.963 58.381C160.749 58.167 160.459 58.0469 160.156 58.0469ZM106.547 29.5312C106.547 28.6237 106.907 27.7533 107.549 27.1116C108.191 26.4699 109.061 26.1094 109.969 26.1094H151.031C151.939 26.1094 152.809 26.4699 153.451 27.1116C154.093 27.7533 154.453 28.6237 154.453 29.5312V58.0469H106.547V29.5312ZM159.016 63.75C159.016 64.6575 158.655 65.5279 158.013 66.1696C157.372 66.8114 156.501 67.1719 155.594 67.1719H105.406C104.499 67.1719 103.628 66.8114 102.987 66.1696C102.345 65.5279 101.984 64.6575 101.984 63.75V60.3281H159.016V63.75ZM136.203 34.0938C136.203 34.3963 136.083 34.6864 135.869 34.9003C135.655 35.1142 135.365 35.2344 135.062 35.2344H125.938C125.635 35.2344 125.345 35.1142 125.131 34.9003C124.917 34.6864 124.797 34.3963 124.797 34.0938C124.797 33.7912 124.917 33.5011 125.131 33.2872C125.345 33.0733 125.635 32.9531 125.938 32.9531H135.062C135.365 32.9531 135.655 33.0733 135.869 33.2872C136.083 33.5011 136.203 33.7912 136.203 34.0938Z" fill="#838383" fill-opacity="0.37"/>
<path d="M145.005 132.059C143.972 132.059 143.11 131.713 142.418 131.021C141.725 130.328 141.378 129.465 141.378 128.432V108.735C141.378 107.702 141.725 106.84 142.418 106.148C143.11 105.455 143.972 105.108 145.005 105.108H178.177C179.21 105.108 180.072 105.455 180.764 106.148C181.457 106.84 181.804 107.702 181.804 108.735V128.432C181.804 129.465 181.458 130.327 180.766 131.019C180.073 131.712 179.21 132.059 178.177 132.059H145.005ZM145.005 129.813H178.177C178.521 129.813 178.838 129.669 179.127 129.382C179.414 129.093 179.558 128.776 179.558 128.432V108.735C179.558 108.391 179.414 108.074 179.127 107.785C178.838 107.498 178.521 107.354 178.177 107.354H145.005C144.661 107.354 144.344 107.498 144.055 107.785C143.768 108.074 143.624 108.391 143.624 108.735V128.432C143.624 128.776 143.768 129.093 144.055 129.382C144.344 129.669 144.661 129.813 145.005 129.813ZM153.126 127.05H170.055V123.592H153.126V127.05ZM146.388 120.313H149.843V116.854H146.388V120.313ZM153.126 120.313H156.58V116.854H153.126V120.313ZM159.864 120.313H163.318V116.854H159.864V120.313ZM166.601 120.313H170.055V116.854H166.601V120.313ZM173.339 120.313H176.793V116.854H173.339V120.313ZM146.388 113.575H149.843V110.116H146.388V113.575ZM153.126 113.575H156.58V110.116H153.126V113.575ZM159.864 113.575H163.318V110.116H159.864V113.575ZM166.601 113.575H170.055V110.116H166.601V113.575ZM173.339 113.575H176.793V110.116H173.339V113.575Z" fill="#838383" fill-opacity="0.37"/>
<path fill-rule="evenodd" clip-rule="evenodd" d="M401.486 97.8533C401.486 94.2327 402.925 90.7604 405.485 88.2003C408.045 85.6402 411.517 84.2019 415.138 84.2019C418.758 84.2019 422.23 85.6402 424.791 88.2003C427.351 90.7604 428.789 94.2327 428.789 97.8533V108.422C428.789 112.043 427.351 115.515 424.791 118.075C422.23 120.635 418.758 122.073 415.138 122.073C411.517 122.073 408.045 120.635 405.485 118.075C402.925 115.515 401.486 112.043 401.486 108.422V97.8533ZM413.817 86.9234C411.145 87.2467 408.684 88.5371 406.899 90.5508C405.114 92.5646 404.129 95.1623 404.128 97.8533V108.422C404.128 111.342 405.288 114.142 407.353 116.207C409.418 118.271 412.218 119.431 415.138 119.431C418.057 119.431 420.858 118.271 422.922 116.207C424.987 114.142 426.147 111.342 426.147 108.422V97.8533C426.146 95.1623 425.161 92.5646 423.376 90.5508C421.591 88.5371 419.13 87.2467 416.459 86.9234V93.2347C417.232 93.508 417.901 94.0142 418.374 94.6836C418.847 95.3531 419.101 96.1528 419.101 96.9725V100.495C419.101 101.547 418.683 102.555 417.94 103.298C417.197 104.041 416.189 104.459 415.138 104.459C414.086 104.459 413.078 104.041 412.335 103.298C411.592 102.555 411.174 101.547 411.174 100.495V96.9725C411.174 95.2463 412.277 93.779 413.817 93.2347V86.9234ZM415.138 95.6514C414.787 95.6514 414.451 95.7906 414.203 96.0384C413.956 96.2861 413.817 96.6222 413.817 96.9725V100.495C413.817 100.846 413.956 101.182 414.203 101.43C414.451 101.677 414.787 101.817 415.138 101.817C415.488 101.817 415.824 101.677 416.072 101.43C416.32 101.182 416.459 100.846 416.459 100.495V96.9725C416.459 96.6222 416.32 96.2861 416.072 96.0384C415.824 95.7906 415.488 95.6514 415.138 95.6514Z" fill="#838383" fill-opacity="0.37"/>
<g clip-path="url(#clip4_589_5)">
<path d="M364.194 308.84C361.117 308.84 358.498 307.76 356.338 305.6C354.177 303.44 353.097 300.821 353.097 297.743V286.788C353.097 283.709 354.177 281.09 356.338 278.931C358.498 276.772 361.117 275.692 364.194 275.691C367.272 275.691 369.891 276.771 372.051 278.931C374.212 281.092 375.292 283.711 375.292 286.788V297.743C375.292 300.821 374.212 303.44 372.051 305.6C369.891 307.76 367.272 308.84 364.194 308.84ZM365.119 286.788H373.442C373.442 284.355 372.635 282.267 371.019 280.524C369.403 278.782 367.436 277.801 365.119 277.583V286.788ZM354.947 286.788H363.27V277.583C360.953 277.801 358.986 278.782 357.37 280.524C355.754 282.267 354.947 284.355 354.947 286.788ZM364.194 306.991C366.753 306.991 368.934 306.089 370.738 304.285C372.542 302.481 373.443 300.3 373.442 297.743V288.638H354.947V297.743C354.947 300.302 355.849 302.483 357.653 304.287C359.457 306.091 361.637 306.992 364.194 306.991Z" fill="#838383" fill-opacity="0.37"/>
</g>
<path d="M429.211 335H401.468C400.548 335 399.666 335.365 399.016 336.016C398.365 336.666 398 337.548 398 338.468V357.888C398 358.808 398.365 359.69 399.016 360.34C399.666 360.991 400.548 361.356 401.468 361.356H429.211C430.131 361.356 431.013 360.991 431.663 360.34C432.314 359.69 432.679 358.808 432.679 357.888V338.468C432.679 337.548 432.314 336.666 431.663 336.016C431.013 335.365 430.131 335 429.211 335ZM431.292 357.888C431.292 358.44 431.073 358.969 430.682 359.359C430.292 359.75 429.763 359.969 429.211 359.969H401.468C400.916 359.969 400.387 359.75 399.997 359.359C399.606 358.969 399.387 358.44 399.387 357.888V338.468C399.387 337.916 399.606 337.387 399.997 336.997C400.387 336.606 400.916 336.387 401.468 336.387H429.211C429.763 336.387 430.292 336.606 430.682 336.997C431.073 337.387 431.292 337.916 431.292 338.468V357.888ZM421.582 366.211C421.582 366.395 421.509 366.571 421.379 366.701C421.248 366.832 421.072 366.905 420.888 366.905H409.791C409.607 366.905 409.43 366.832 409.3 366.701C409.17 366.571 409.097 366.395 409.097 366.211C409.097 366.027 409.17 365.851 409.3 365.721C409.43 365.591 409.607 365.517 409.791 365.517H420.888C421.072 365.517 421.248 365.591 421.379 365.721C421.509 365.851 421.582 366.027 421.582 366.211Z" fill="#838383" fill-opacity="0.37"/>
<path d="M233.152 427.905H262.981C264.806 427.905 266.557 428.641 267.848 429.953C269.139 431.265 269.864 433.044 269.864 434.899V451.218C269.864 453.073 269.139 454.852 267.848 456.164C266.557 457.475 264.806 458.212 262.981 458.212H252.655L253.802 465.206H256.097V467.538H240.035V465.206H242.33L243.477 458.212H233.152C231.326 458.212 229.575 457.475 228.284 456.164C226.993 454.852 226.268 453.073 226.268 451.218V434.899C226.268 433.044 226.993 431.265 228.284 429.953C229.575 428.641 231.326 427.905 233.152 427.905ZM245.772 458.212L244.624 465.206H251.508L250.361 458.212H245.772ZM233.152 430.236C231.934 430.236 230.767 430.727 229.907 431.602C229.046 432.476 228.562 433.662 228.562 434.899V451.218C228.562 452.455 229.046 453.641 229.907 454.515C230.767 455.39 231.934 455.881 233.152 455.881H262.981C264.198 455.881 265.365 455.39 266.226 454.515C267.086 453.641 267.57 452.455 267.57 451.218V434.899C267.57 433.662 267.086 432.476 266.226 431.602C265.365 430.727 264.198 430.236 262.981 430.236H233.152Z" fill="#838383" fill-opacity="0.37"/>
<path d="M105.994 251.307C106.16 251.097 106.237 250.831 106.21 250.565C106.183 250.3 106.052 250.055 105.847 249.884C105.642 249.713 105.378 249.629 105.111 249.65C104.845 249.671 104.597 249.795 104.421 249.996L101.968 252.939C101.463 253.547 101.15 253.917 100.895 254.148C100.828 254.213 100.754 254.269 100.672 254.314L100.657 254.321L100.642 254.314C100.561 254.269 100.485 254.213 100.418 254.148C100.163 253.916 99.8519 253.547 99.3454 252.939L98.9468 252.462C98.499 251.922 98.0936 251.438 97.7168 251.096C97.3059 250.725 96.7885 250.395 96.106 250.395C95.4234 250.395 94.9074 250.725 94.4951 251.096C94.1183 251.438 93.7142 251.922 93.2665 252.462L90.7683 255.457C90.6822 255.56 90.6174 255.679 90.5774 255.808C90.5375 255.936 90.5232 256.071 90.5354 256.205C90.5601 256.476 90.6913 256.725 90.9 256.899C91.1087 257.073 91.3779 257.157 91.6484 257.132C91.9189 257.107 92.1685 256.976 92.3423 256.767L94.7954 253.824C95.3005 253.217 95.6131 252.847 95.8684 252.616C95.9348 252.551 96.0097 252.495 96.0909 252.449L96.106 252.443L96.121 252.449C96.2027 252.495 96.278 252.551 96.3449 252.616C96.6001 252.848 96.9114 253.217 97.4179 253.824L97.8165 254.302C98.2656 254.841 98.6697 255.326 99.0465 255.667C99.4574 256.038 99.9748 256.369 100.657 256.369C101.34 256.369 101.856 256.038 102.268 255.667C102.645 255.326 103.049 254.841 103.497 254.302L105.994 251.307Z" fill="#838383" fill-opacity="0.37"/>
<path fill-rule="evenodd" clip-rule="evenodd" d="M98.3038 238.707C95.1517 238.707 92.6822 238.707 90.7546 238.966C88.7834 239.231 87.2271 239.785 86.0053 241.005C84.7835 242.227 84.2306 243.783 83.9658 245.756C83.7064 247.682 83.7064 250.152 83.7064 253.304V253.46C83.7064 256.612 83.7064 259.081 83.9658 261.009C84.2306 262.98 84.7849 264.536 86.0053 265.758C87.2271 266.98 88.7834 267.533 90.756 267.798C92.6822 268.057 95.1517 268.057 98.3038 268.057H98.4595C101.612 268.057 104.081 268.057 106.009 267.798C107.98 267.533 109.536 266.979 110.758 265.758C111.98 264.536 112.533 262.98 112.798 261.007C113.057 259.081 113.057 256.612 113.057 253.46V253.304C113.057 250.152 113.057 247.682 112.798 245.755C112.533 243.783 111.978 242.227 110.758 241.005C109.536 239.784 107.98 239.231 106.007 238.966C104.081 238.707 101.612 238.707 98.4595 238.707H98.3038ZM87.4537 242.454C88.2319 241.676 89.283 241.229 91.029 240.995C92.8037 240.757 95.1354 240.754 98.3816 240.754C101.628 240.754 103.96 240.757 105.734 240.995C107.48 241.229 108.533 241.677 109.311 242.454C110.088 243.232 110.534 244.283 110.769 246.029C111.006 247.804 111.009 250.135 111.009 253.382C111.009 256.628 111.006 258.96 110.769 260.734C110.534 262.48 110.086 263.533 109.31 264.311C108.531 265.088 107.48 265.534 105.734 265.769C103.96 266.007 101.628 266.009 98.3816 266.009C95.1354 266.009 92.8037 266.007 91.029 265.769C89.283 265.534 88.2305 265.086 87.4524 264.31C86.6756 263.532 86.2292 262.48 85.9944 260.734C85.7569 258.96 85.7541 256.628 85.7541 253.382C85.7541 250.135 85.7569 247.804 85.9944 246.029C86.2292 244.283 86.677 243.232 87.4537 242.454Z" fill="#838383" fill-opacity="0.37"/>
<path d="M187.794 341.534C187.794 342.19 188.327 342.723 188.983 342.723H190.077L186.886 345.914C186.849 345.951 186.806 345.98 186.757 346C186.709 346.02 186.658 346.031 186.605 346.031C186.553 346.031 186.502 346.02 186.454 346C186.405 345.98 186.362 345.951 186.325 345.914L183.811 343.4C183.29 342.88 182.585 342.588 181.85 342.588C181.114 342.588 180.409 342.88 179.888 343.4L176.253 347.035C176.137 347.144 176.043 347.275 175.978 347.421C175.913 347.567 175.878 347.724 175.875 347.884C175.872 348.044 175.902 348.202 175.961 348.35C176.021 348.498 176.11 348.633 176.223 348.746C176.336 348.859 176.471 348.948 176.619 349.007C176.767 349.067 176.925 349.097 177.085 349.094C177.245 349.091 177.402 349.056 177.548 348.991C177.694 348.926 177.825 348.832 177.934 348.715L181.569 345.08C181.606 345.043 181.649 345.014 181.698 344.994C181.746 344.974 181.797 344.964 181.85 344.964C181.902 344.964 181.953 344.974 182.001 344.994C182.05 345.014 182.093 345.043 182.13 345.08L184.644 347.595C185.165 348.115 185.87 348.407 186.605 348.407C187.341 348.407 188.046 348.115 188.567 347.595L191.758 344.405V345.497C191.758 345.813 191.883 346.115 192.106 346.338C192.329 346.561 192.631 346.686 192.947 346.686C193.262 346.686 193.565 346.561 193.788 346.338C194.01 346.115 194.136 345.813 194.136 345.497V341.534C194.136 341.219 194.01 340.916 193.788 340.693C193.565 340.47 193.262 340.345 192.947 340.345H188.983C188.668 340.345 188.366 340.47 188.143 340.693C187.92 340.916 187.794 341.219 187.794 341.534Z" fill="#838383" fill-opacity="0.37"/>
<path fill-rule="evenodd" clip-rule="evenodd" d="M184.93 327.662C181.269 327.662 178.401 327.662 176.163 327.964C173.874 328.271 172.067 328.915 170.648 330.332C169.229 331.751 168.587 333.558 168.279 335.849C167.978 338.086 167.978 340.954 167.978 344.614V344.795C167.978 348.455 167.978 351.323 168.279 353.562C168.587 355.851 169.23 357.658 170.648 359.077C172.067 360.496 173.874 361.138 176.165 361.446C178.401 361.747 181.269 361.747 184.93 361.747H185.111C188.771 361.747 191.639 361.747 193.877 361.446C196.167 361.138 197.974 360.494 199.393 359.077C200.812 357.658 201.454 355.851 201.761 353.56C202.062 351.323 202.062 348.455 202.062 344.795V344.614C202.062 340.954 202.062 338.086 201.761 335.847C201.454 333.558 200.81 331.751 199.393 330.332C197.974 328.913 196.167 328.271 193.876 327.964C191.639 327.662 188.771 327.662 185.111 327.662H184.93ZM172.33 332.014C173.233 331.11 174.454 330.592 176.482 330.319C178.543 330.044 181.25 330.04 185.02 330.04C188.79 330.04 191.498 330.044 193.559 330.319C195.586 330.592 196.809 331.112 197.712 332.014C198.614 332.918 199.133 334.138 199.405 336.166C199.681 338.227 199.684 340.935 199.684 344.705C199.684 348.474 199.681 351.182 199.405 353.243C199.133 355.271 198.613 356.493 197.711 357.397C196.807 358.299 195.586 358.817 193.559 359.09C191.498 359.366 188.79 359.369 185.02 359.369C181.25 359.369 178.543 359.366 176.482 359.09C174.454 358.817 173.232 358.297 172.328 357.395C171.426 356.491 170.908 355.271 170.635 353.243C170.359 351.182 170.356 348.474 170.356 344.705C170.356 340.935 170.359 338.227 170.635 336.166C170.908 334.138 171.428 332.918 172.33 332.014Z" fill="#838383" fill-opacity="0.37"/>
<g clip-path="url(#clip5_589_5)">
<path d="M175.062 243.291L183.893 248.391C184.159 248.109 184.471 247.866 184.821 247.659C185.782 247.107 186.923 246.959 187.994 247.246C189.064 247.534 189.977 248.234 190.532 249.193C190.866 249.776 191.055 250.43 191.083 251.101C191.111 251.772 190.977 252.44 190.693 253.048C190.409 253.657 189.983 254.188 189.45 254.597C188.918 255.006 188.295 255.281 187.634 255.399V265.487C188.302 265.607 188.931 265.889 189.466 266.307C190.001 266.725 190.427 267.267 190.705 267.887C190.983 268.507 191.106 269.185 191.063 269.862C191.02 270.54 190.813 271.197 190.458 271.777C190.104 272.356 189.614 272.841 189.03 273.188C188.447 273.536 187.787 273.735 187.109 273.77C186.431 273.805 185.754 273.674 185.138 273.389C184.522 273.103 183.984 272.672 183.572 272.132L174.899 277.138C175.166 277.774 175.272 278.466 175.207 279.152C175.143 279.839 174.909 280.499 174.528 281.073C174.147 281.648 173.629 282.119 173.022 282.446C172.414 282.772 171.735 282.943 171.046 282.943C170.384 282.945 169.732 282.789 169.142 282.489C168.553 282.189 168.043 281.754 167.655 281.218C167.267 280.682 167.011 280.062 166.91 279.409C166.808 278.755 166.863 278.087 167.071 277.459L158.299 272.394C157.866 272.877 157.327 273.252 156.725 273.491C156.122 273.729 155.472 273.824 154.826 273.768C154.18 273.712 153.556 273.507 153.003 273.168C152.451 272.83 151.984 272.367 151.641 271.818C151.297 271.268 151.086 270.646 151.025 270C150.963 269.355 151.052 268.704 151.285 268.099C151.518 267.495 151.888 266.952 152.367 266.515C152.846 266.078 153.42 265.758 154.043 265.581L154.045 255.306C153.433 255.132 152.868 254.822 152.394 254.397C151.92 253.973 151.549 253.446 151.309 252.857C151.069 252.267 150.967 251.631 151.01 250.996C151.052 250.361 151.24 249.745 151.557 249.193C151.873 248.648 152.307 248.181 152.829 247.827C153.35 247.473 153.945 247.242 154.568 247.15C155.191 247.058 155.827 247.108 156.428 247.296C157.03 247.484 157.581 247.806 158.041 248.237L166.975 243.077C166.83 242.463 166.826 241.825 166.964 241.21C167.101 240.595 167.376 240.018 167.767 239.524C168.159 239.03 168.657 238.632 169.225 238.358C169.793 238.084 170.415 237.942 171.046 237.943C171.695 237.942 172.335 238.092 172.916 238.381C173.497 238.671 174.003 239.092 174.393 239.611C174.783 240.13 175.046 240.733 175.162 241.372C175.278 242.011 175.244 242.668 175.062 243.291ZM174.137 244.941C174.044 245.042 173.944 245.139 173.843 245.231L185.614 265.622L185.744 265.584V255.296C185.208 255.141 184.709 254.88 184.276 254.529C183.842 254.177 183.484 253.743 183.222 253.251C182.959 252.758 182.798 252.218 182.748 251.663C182.698 251.107 182.759 250.548 182.929 250.016L174.137 244.941ZM167.987 244.976C167.927 244.911 167.869 244.844 167.813 244.776L159.091 249.812C159.306 250.384 159.394 250.997 159.346 251.606C159.299 252.216 159.119 252.808 158.818 253.34C158.517 253.872 158.103 254.332 157.604 254.686C157.106 255.041 156.536 255.282 155.935 255.392V265.491L156.122 265.528L167.987 244.976ZM172.187 246.146C171.322 246.391 170.401 246.352 169.561 246.034L157.823 266.357C158.49 266.898 158.974 267.631 159.211 268.457H182.875C183.076 267.747 183.461 267.103 183.991 266.589L172.187 246.146ZM173.967 275.771L182.852 270.641C182.827 270.544 182.805 270.446 182.787 270.347H159.304C159.28 270.478 159.248 270.609 159.212 270.737L168.055 275.842C168.444 275.443 168.909 275.125 169.423 274.909C169.937 274.692 170.49 274.581 171.047 274.582C172.186 274.582 173.215 275.036 173.969 275.771" fill="#838383" fill-opacity="0.37"/>
</g>
<path d="M230.813 348.943L229.405 350.349L231.5 352.443L232.906 351.037L230.813 348.943ZM249.188 348.943L247.093 351.037L248.5 352.443L250.594 350.35L249.188 348.943ZM240 349.567C239.67 349.571 239.336 349.59 239 349.631C238.99 349.631 238.98 349.629 238.97 349.631C234.914 350.096 231.686 353.373 231.125 357.411C230.677 360.661 232.017 363.608 234.25 365.506C235.163 366.286 235.781 367.355 236 368.536V374.536H238.28C238.628 375.133 239.263 375.536 240 375.536C240.737 375.536 241.372 375.133 241.72 374.536H244V370.536H244.094V369.348C244.094 367.882 244.856 366.404 246.094 365.255C247.75 363.597 249 361.242 249 358.537C249 353.597 244.934 349.521 240 349.567ZM240 351.567C243.865 351.513 247 354.677 247 358.537C247 360.631 246.03 362.475 244.687 363.817L244.719 363.849C243.384 365.08 242.521 366.738 242.279 368.537H237.905C237.685 366.823 236.95 365.164 235.561 363.974C233.794 362.474 232.741 360.214 233.093 357.662C233.53 354.512 236.086 351.979 239.218 351.632C239.477 351.596 239.737 351.575 239.998 351.568L240 351.567ZM226 358.537V360.537H229V358.537H226ZM251 358.537V360.537H254V358.537H251ZM231.5 366.631L229.406 368.724L230.813 370.131L232.905 368.037L231.5 366.631ZM248.5 366.631L247.094 368.037L249.187 370.131L250.594 368.724L248.5 366.631ZM238 370.537H242V372.537H238V370.537Z" fill="#838383" fill-opacity="0.37"/>
<path d="M149.857 432.3C148.834 432.3 147.853 431.894 147.13 431.171C146.406 430.447 146 429.466 146 428.443V397.586H163.357L173 407.229V428.443C173 429.466 172.594 430.447 171.87 431.171C171.147 431.894 170.166 432.3 169.143 432.3H149.857Z" stroke="#838383" stroke-opacity="0.37" stroke-linecap="round" stroke-linejoin="round"/>
<path d="M161.429 397.586V409.157H173" stroke="#838383" stroke-opacity="0.37" stroke-linejoin="round"/>
<path d="M514 199.943C514.133 199.943 514.26 199.996 514.354 200.09C514.447 200.183 514.5 200.311 514.5 200.443V202.443C514.5 202.576 514.447 202.703 514.354 202.797C514.26 202.89 514.133 202.943 514 202.943C513.867 202.943 513.74 202.89 513.646 202.797C513.553 202.703 513.5 202.576 513.5 202.443V200.443C513.5 200.311 513.553 200.183 513.646 200.09C513.74 199.996 513.867 199.943 514 199.943ZM518 207.943C518 209.004 517.579 210.021 516.828 210.772C516.078 211.522 515.061 211.943 514 211.943C512.939 211.943 511.922 211.522 511.172 210.772C510.421 210.021 510 209.004 510 207.943V201.943C510 200.882 510.421 199.865 511.172 199.115C511.922 198.365 512.939 197.943 514 197.943C515.061 197.943 516.078 198.365 516.828 199.115C517.579 199.865 518 200.882 518 201.943V207.943ZM514 196.943C512.674 196.943 511.402 197.47 510.464 198.408C509.527 199.345 509 200.617 509 201.943V207.943C509 209.269 509.527 210.541 510.464 211.479C511.402 212.416 512.674 212.943 514 212.943C515.326 212.943 516.598 212.416 517.536 211.479C518.473 210.541 519 209.269 519 207.943V201.943C519 200.617 518.473 199.345 517.536 198.408C516.598 197.47 515.326 196.943 514 196.943Z" fill="#838383" fill-opacity="0.37"/>
<path d="M177.667 520.333V543.667H154.333V520.333H177.667ZM177.667 517H154.333C152.5 517 151 518.5 151 520.333V543.667C151 545.5 152.5 547 154.333 547H177.667C179.5 547 181 545.5 181 543.667V520.333C181 518.5 179.5 517 177.667 517ZM161 523.667H157.667V540.333H161V523.667ZM171 523.667H164.333V540.333H167.667V533.667H171C172.833 533.667 174.333 532.167 174.333 530.333V527C174.333 525.167 172.833 523.667 171 523.667ZM171 530.333H167.667V527H171V530.333Z" fill="#838383" fill-opacity="0.37"/>
<path d="M256.164 530.889V513.091M264.5 503.443H231.5C230.97 503.443 230.461 503.654 230.086 504.029C229.711 504.404 229.5 504.913 229.5 505.443V538.443C229.5 538.974 229.711 539.482 230.086 539.857C230.461 540.232 230.97 540.443 231.5 540.443H264.5C265.03 540.443 265.539 540.232 265.914 539.857C266.289 539.482 266.5 538.974 266.5 538.443V505.443C266.5 504.913 266.289 504.404 265.914 504.029C265.539 503.654 265.03 503.443 264.5 503.443Z" stroke="#838383" stroke-opacity="0.37" stroke-linecap="round" stroke-linejoin="round"/>
<path d="M262 520.907L256.165 512.997L250.329 520.907M239.836 512.997V530.795M245.671 522.979L239.835 530.889L234 522.979" stroke="#838383" stroke-opacity="0.37" stroke-linecap="round" stroke-linejoin="round"/>
<path fill-rule="evenodd" clip-rule="evenodd" d="M524.325 118.5C524.325 120.23 524.666 121.943 525.328 123.542C525.99 125.14 526.96 126.593 528.184 127.816C529.407 129.039 530.86 130.01 532.458 130.672C534.057 131.334 535.77 131.675 537.5 131.675C539.23 131.675 540.943 131.334 542.542 130.672C544.14 130.01 545.593 129.039 546.816 127.816C548.04 126.593 549.01 125.14 549.672 123.542C550.334 121.943 550.675 120.23 550.675 118.5C550.675 115.006 549.287 111.655 546.816 109.184C544.345 106.713 540.994 105.325 537.5 105.325C534.006 105.325 530.655 106.713 528.184 109.184C525.713 111.655 524.325 115.006 524.325 118.5ZM549.125 118.5C549.125 121.583 547.9 124.54 545.72 126.72C543.54 128.9 540.583 130.125 537.5 130.125C534.417 130.125 531.46 128.9 529.28 126.72C527.1 124.54 525.875 121.583 525.875 118.5C525.875 115.417 527.1 112.46 529.28 110.28C531.46 108.1 534.417 106.875 537.5 106.875C540.583 106.875 543.54 108.1 545.72 110.28C547.9 112.46 549.125 115.417 549.125 118.5Z" fill="#838383" fill-opacity="0.37"/>
<path fill-rule="evenodd" clip-rule="evenodd" d="M532.075 118.5C532.075 125.314 534.31 130.9 537.5 130.9C540.69 130.9 542.925 125.314 542.925 118.5C542.925 111.686 540.69 106.1 537.5 106.1C534.31 106.1 532.075 111.686 532.075 118.5ZM541.375 118.5C541.375 124.528 539.445 129.35 537.5 129.35C535.555 129.35 533.625 124.528 533.625 118.5C533.625 112.472 535.555 107.65 537.5 107.65C539.445 107.65 541.375 112.472 541.375 118.5Z" fill="#838383" fill-opacity="0.37"/>
<path d="M527.789 111.234L528.828 110.083C528.994 110.232 529.17 110.378 529.359 110.519C531.402 112.05 534.626 112.984 538.14 112.984C541.136 112.984 543.932 112.306 545.975 111.139C546.446 110.873 546.891 110.563 547.304 110.214L548.311 111.392C547.849 111.787 547.325 112.151 546.746 112.483C544.456 113.793 541.395 114.534 538.14 114.534C534.312 114.534 530.759 113.506 528.429 111.759C528.208 111.593 527.994 111.419 527.789 111.234ZM527.789 125.785L528.828 126.932C528.994 126.783 529.17 126.637 529.359 126.498C531.402 124.967 534.626 124.033 538.14 124.033C541.136 124.033 543.932 124.709 545.975 125.878C546.473 126.163 546.918 126.473 547.304 126.802L548.311 125.624C547.825 125.212 547.301 124.847 546.746 124.533C544.456 123.224 541.395 122.483 538.14 122.483C534.312 122.483 530.759 123.511 528.429 125.256C528.203 125.427 527.989 125.604 527.789 125.785ZM525.1 119.275V117.725H549.9V119.275H525.1Z" fill="#838383" fill-opacity="0.37"/>
<path d="M150.5 191.167V187.5H146.833V183.833C146.83 182.862 146.443 181.931 145.756 181.244C145.069 180.557 144.138 180.17 143.167 180.167H139.5V176.5H135.833V180.167H132.167V176.5H128.5V180.167H124.833C123.862 180.17 122.931 180.557 122.244 181.244C121.557 181.931 121.17 182.862 121.167 183.833V187.5H117.5V191.167H121.167V194.833H117.5V198.5H121.167V202.167C121.17 203.138 121.557 204.069 122.244 204.756C122.931 205.443 123.862 205.83 124.833 205.833H128.5V209.5H132.167V205.833H135.833V209.5H139.5V205.833H143.167C144.138 205.83 145.069 205.443 145.756 204.756C146.443 204.069 146.83 203.138 146.833 202.167V198.5H150.5V194.833H146.833V191.167H150.5ZM143.167 202.167H124.833V183.833H143.167V202.167Z" fill="#838383" fill-opacity="0.37"/>
<path d="M132.829 185.667H130.363L126.678 200.333H128.561L129.411 196.896H133.657L134.486 200.333H136.433L132.829 185.667ZM129.659 195.427L131.525 187.408H131.609L133.412 195.427H129.659ZM138.114 185.667H139.947V200.333H138.114V185.667Z" fill="#838383" fill-opacity="0.37"/>
<g clip-path="url(#clip6_589_5)">
<path d="M512.928 311.839L514.825 317.674C514.879 317.84 514.976 317.99 515.105 318.107C515.235 318.224 515.393 318.305 515.564 318.342C515.735 318.379 515.913 318.371 516.08 318.318C516.246 318.265 516.396 318.169 516.514 318.04L524.972 308.815" stroke="#838383" stroke-opacity="0.37" stroke-linecap="round" stroke-linejoin="round"/>
<path d="M535.886 304.037C535.886 304.037 534.826 309.654 528.557 309.654C522.288 309.654 518.337 301.919 513.615 301.919C508.037 301.919 506.572 306.601 506.572 309.654C506.572 312.26 507.956 313.319 509.788 313.319C511.62 313.319 515.04 310.224 516.506 308.636H524.606" stroke="#838383" stroke-opacity="0.37" stroke-linecap="round" stroke-linejoin="round"/>
<path d="M513.615 301.919C513.615 299.232 511.457 297.155 508.078 297.155C504.699 297.155 502.5 298.825 502.5 303.547C502.5 308.269 506.583 309.205 506.583 309.205" stroke="#838383" stroke-opacity="0.37" stroke-linecap="round" stroke-linejoin="round"/>
<path d="M505.257 297.701C503.982 294.339 507.141 291.048 512.027 291.048C519.437 291.048 520.108 303.078 527.213 303.078C533.117 303.078 537.076 295.421 534.379 291.008C530.796 285.144 524.805 286.222 522.28 288.624" stroke="#838383" stroke-opacity="0.37" stroke-linecap="round" stroke-linejoin="round"/>
<path d="M512.027 291.048C513.371 286.528 520.109 286.386 522.776 289.053C525.443 291.72 525.3 295.526 521.558 299.695M531.043 301.919C533.911 305.399 540.961 304.915 541.47 298.014C541.979 291.113 535.937 291.224 534.73 291.686" stroke="#838383" stroke-opacity="0.37" stroke-linecap="round" stroke-linejoin="round"/>
</g>
<path d="M23.5172 320.434L23.8246 315.917C23.9374 314.261 25.3847 312.998 27.0409 313.111M16.9821 327.553L23.0048 327.963M17.8532 314.755C17.9229 313.813 17.637 312.88 17.052 312.138C16.467 311.397 15.6254 310.903 14.6933 310.752C13.7613 310.601 12.8065 310.805 12.0176 311.324C11.2288 311.843 10.663 312.638 10.4322 313.554C9.92955 313.613 9.44393 313.773 9.00428 314.023C8.56463 314.274 8.17993 314.611 7.87308 315.013C7.56623 315.416 7.34352 315.876 7.21819 316.366C7.09286 316.857 7.06748 317.367 7.14356 317.868C6.45578 317.942 5.8017 318.204 5.25282 318.625C4.70394 319.046 4.28139 319.61 4.03138 320.255C3.78137 320.9 3.71352 321.602 3.83525 322.283C3.95697 322.964 4.26359 323.598 4.72157 324.117C3.86981 324.442 3.13603 325.016 2.61625 325.765C2.09648 326.514 1.81493 327.403 1.80846 328.314C1.80198 329.226 2.07089 330.118 2.57998 330.875C3.08907 331.631 3.81462 332.216 4.66168 332.553C4.45382 333.166 4.40736 333.823 4.52676 334.46C4.64616 335.096 4.92741 335.691 5.34343 336.188C5.75945 336.684 6.29623 337.065 6.90212 337.294C7.508 337.522 8.16257 337.591 8.80283 337.494C8.90053 338.366 9.2989 339.176 9.92943 339.786C10.56 340.396 11.3833 340.767 12.2577 340.835C13.1322 340.904 14.0032 340.665 14.721 340.161C15.4387 339.657 15.9584 338.918 16.1905 338.072L16.2648 338.093L17.8532 314.755Z" stroke="#838383" stroke-opacity="0.37" stroke-width="2" stroke-linecap="round" stroke-linejoin="round"/>
<path d="M16.4698 335.081L25.5038 335.696C26.3024 335.75 27.0468 336.12 27.5731 336.723C28.0994 337.326 28.3645 338.114 28.3102 338.912L28.2077 340.418M17.4945 320.025L29.5399 320.844M30.2927 320.896C30.2791 321.095 30.1868 321.281 30.036 321.413C29.8852 321.545 29.6883 321.611 29.4887 321.597C29.289 321.584 29.1029 321.491 28.9713 321.34C28.8398 321.19 28.7735 320.993 28.7871 320.793C28.8006 320.593 28.893 320.407 29.0438 320.276C29.1946 320.144 29.3915 320.078 29.5911 320.092C29.7908 320.105 29.9769 320.197 30.1085 320.348C30.24 320.499 30.3063 320.696 30.2927 320.896ZM23.7577 328.014C23.7441 328.214 23.6517 328.4 23.5009 328.531C23.3501 328.663 23.1533 328.729 22.9536 328.716C22.7539 328.702 22.5678 328.61 22.4363 328.459C22.3047 328.308 22.2384 328.111 22.252 327.912C22.2656 327.712 22.3579 327.526 22.5087 327.394C22.6595 327.263 22.8564 327.196 23.0561 327.21C23.2557 327.224 23.4418 327.316 23.5734 327.467C23.705 327.618 23.7713 327.814 23.7577 328.014Z" stroke="#838383" stroke-opacity="0.37" stroke-width="2" stroke-linecap="round" stroke-linejoin="round"/>
<path d="M28.9605 340.469C28.947 340.669 28.8546 340.855 28.7038 340.987C28.553 341.118 28.3561 341.185 28.1565 341.171C27.9568 341.157 27.7707 341.065 27.6391 340.914C27.5076 340.764 27.4413 340.567 27.4549 340.367C27.4685 340.167 27.5608 339.981 27.7116 339.85C27.8624 339.718 28.0593 339.652 28.2589 339.665C28.4586 339.679 28.6447 339.771 28.7763 339.922C28.9078 340.073 28.9741 340.27 28.9605 340.469ZM27.7938 313.162C27.7802 313.362 27.6878 313.548 27.5371 313.68C27.3863 313.811 27.1894 313.878 26.9897 313.864C26.79 313.85 26.604 313.758 26.4724 313.607C26.3408 313.457 26.2745 313.26 26.2881 313.06C26.3017 312.86 26.3941 312.674 26.5448 312.543C26.6956 312.411 26.8925 312.345 27.0922 312.358C27.2919 312.372 27.4779 312.464 27.6095 312.615C27.7411 312.766 27.8074 312.963 27.7938 313.162Z" stroke="#838383" stroke-opacity="0.37" stroke-width="2" stroke-linecap="round" stroke-linejoin="round"/>
<path d="M363.182 511.959L365.985 500.746L371.59 497.943M363.182 511.959L371.59 509.155L377.196 503.549L371.59 497.943M363.182 511.959L371.59 497.943" stroke="#838383" stroke-opacity="0.37" stroke-linecap="round" stroke-linejoin="round"/>
<path d="M377.197 503.549L380 514.763M380 514.763V523.172L377.197 531.581L371.591 534.384L363.181 528.778M380 514.763L371.591 509.155L368.788 520.368M380 514.763L368.788 520.368M363.181 528.778V511.959L368.788 520.368M363.181 528.778L368.788 520.368" stroke="#838383" stroke-opacity="0.37" stroke-linecap="round" stroke-linejoin="round"/>
<path d="M363.182 528.777H371.591L380 523.171" stroke="#838383" stroke-opacity="0.37" stroke-linecap="round" stroke-linejoin="round"/>
<path d="M374.394 517.565L371.59 528.777L368.787 520.367M359.818 511.959L357.015 500.746L351.41 497.943M359.818 511.959L351.41 509.155L345.804 503.549L351.41 497.943M359.818 511.959L351.41 497.943" stroke="#838383" stroke-opacity="0.37" stroke-linecap="round" stroke-linejoin="round"/>
<path d="M345.803 503.549L343 514.763M343 514.763V523.172L345.803 531.581L351.409 534.384L359.819 528.778M343 514.763L351.409 509.155L354.212 520.368M343 514.763L354.212 520.368M359.819 528.778V511.959L354.212 520.368M359.819 528.778L354.212 520.368" stroke="#838383" stroke-opacity="0.37" stroke-linecap="round" stroke-linejoin="round"/>
<path d="M359.818 528.777H351.41L343 523.171" stroke="#838383" stroke-opacity="0.37" stroke-linecap="round" stroke-linejoin="round"/>
<path d="M348.606 517.565L351.409 528.777L354.212 520.367" stroke="#838383" stroke-opacity="0.37" stroke-linecap="round" stroke-linejoin="round"/>
<path d="M271.703 242.096C273.146 242.096 273.969 243.533 273.969 244.976V253.823H272.141C271.786 252.945 271.136 252.217 270.303 251.765C269.47 251.313 268.506 251.165 267.576 251.346C266.646 251.527 265.808 252.026 265.205 252.757C264.602 253.489 264.273 254.407 264.273 255.354C264.273 256.302 264.602 257.22 265.205 257.951C265.808 258.683 266.646 259.181 267.576 259.362C268.506 259.543 269.47 259.395 270.303 258.943C271.136 258.492 271.786 257.764 272.141 256.886H273.969V279.136C273.969 280.352 273.454 281.563 272.37 282.116C271.387 282.631 270.295 282.903 269.185 282.909C266.102 282.909 263.809 281.349 262.333 279.503C261.311 278.229 260.598 276.736 260.251 275.14C259.297 274.859 258.414 274.379 257.66 273.731C256.21 272.484 255.083 270.483 255.083 267.535C255.083 265.993 255.194 264.65 255.471 263.521H264.067C265.451 263.521 266.598 264.542 266.792 265.871C265.917 266.233 265.195 266.888 264.75 267.723C264.304 268.559 264.163 269.524 264.351 270.452C264.538 271.38 265.042 272.214 265.777 272.812C266.511 273.409 267.431 273.733 268.378 273.727C269.325 273.722 270.24 273.387 270.968 272.781C271.695 272.175 272.189 271.334 272.365 270.404C272.542 269.474 272.389 268.511 271.934 267.681C271.478 266.85 270.748 266.204 269.869 265.853C269.762 264.387 269.104 263.016 268.028 262.016C266.951 261.015 265.536 260.459 264.067 260.458H257.207C257.512 260.206 257.853 259.998 258.217 259.842C258.007 259.092 257.885 258.319 257.854 257.541C257.787 256.04 258.011 254.478 258.456 253.088C258.897 251.72 259.595 250.387 260.575 249.466C261.19 248.867 261.969 248.464 262.813 248.308C263.219 246.593 264.255 245.177 265.575 244.15C267.272 242.827 269.495 242.096 271.7 242.096M277.031 272.708H280.4C281.943 272.708 283.423 272.095 284.514 271.004C285.606 269.913 286.219 268.433 286.219 266.89V263.225C287.097 262.87 287.825 262.22 288.277 261.387C288.729 260.554 288.877 259.59 288.696 258.66C288.515 257.729 288.016 256.891 287.284 256.288C286.553 255.686 285.635 255.356 284.688 255.356C283.74 255.356 282.822 255.686 282.091 256.288C281.359 256.891 280.86 257.729 280.679 258.66C280.498 259.59 280.646 260.554 281.098 261.387C281.55 262.22 282.278 262.87 283.156 263.225V266.89C283.156 267.621 282.866 268.322 282.349 268.839C281.832 269.356 281.131 269.646 280.4 269.646H277.031V244.976C277.031 243.533 277.854 242.096 279.298 242.096C281.507 242.096 283.728 242.827 285.425 244.15C286.746 245.177 287.781 246.596 288.187 248.308C289.044 248.451 289.808 248.888 290.425 249.466C291.405 250.387 292.103 251.718 292.544 253.088C292.989 254.478 293.214 256.04 293.146 257.541C293.111 258.309 292.999 259.093 292.783 259.842L292.917 259.903C293.673 260.258 294.285 260.816 294.743 261.557C295.61 262.955 295.917 264.968 295.917 267.535C295.917 270.485 294.79 272.488 293.34 273.731C292.585 274.379 291.701 274.859 290.747 275.14C290.4 276.736 289.688 278.229 288.667 279.503C287.191 281.349 284.898 282.909 281.813 282.909C280.703 282.904 279.611 282.633 278.628 282.118C277.546 281.563 277.031 280.352 277.031 279.136V272.708ZM267.333 255.354C267.333 255.084 267.441 254.824 267.632 254.632C267.824 254.441 268.083 254.333 268.354 254.333C268.625 254.333 268.885 254.441 269.076 254.632C269.267 254.824 269.375 255.084 269.375 255.354C269.375 255.625 269.267 255.885 269.076 256.076C268.885 256.268 268.625 256.375 268.354 256.375C268.083 256.375 267.824 256.268 267.632 256.076C267.441 255.885 267.333 255.625 267.333 255.354ZM268.354 268.625C268.083 268.625 267.824 268.733 267.632 268.924C267.441 269.116 267.333 269.375 267.333 269.646C267.333 269.917 267.441 270.176 267.632 270.368C267.824 270.559 268.083 270.667 268.354 270.667C268.625 270.667 268.885 270.559 269.076 270.368C269.267 270.176 269.375 269.917 269.375 269.646C269.375 269.375 269.267 269.116 269.076 268.924C268.885 268.733 268.625 268.625 268.354 268.625ZM283.667 259.438C283.667 259.708 283.774 259.968 283.966 260.159C284.157 260.351 284.417 260.458 284.688 260.458C284.958 260.458 285.218 260.351 285.409 260.159C285.601 259.968 285.708 259.708 285.708 259.438C285.708 259.167 285.601 258.907 285.409 258.716C285.218 258.524 284.958 258.417 284.688 258.417C284.417 258.417 284.157 258.524 283.966 258.716C283.774 258.907 283.667 259.167 283.667 259.438Z" fill="#838383" fill-opacity="0.37"/>
<path d="M23.5808 406.384L21.6008 408.361L24.5469 411.305L26.5241 409.328L23.5808 406.384ZM49.4206 406.384L46.4745 409.328L48.4531 411.305L51.3978 408.362L49.4206 406.384ZM36.5 407.261C36.0359 407.267 35.5662 407.293 35.0938 407.351C35.0797 407.351 35.0656 407.348 35.0516 407.351C29.3478 408.005 24.8084 412.613 24.0195 418.292C23.3895 422.862 25.2739 427.006 28.4141 429.675C29.6985 430.771 30.5674 432.276 30.875 433.936V442.374H34.0812C34.5706 443.213 35.4636 443.78 36.5 443.78C37.5364 443.78 38.4294 443.213 38.9187 442.374H42.125V436.749H42.2572V435.078C42.2572 433.017 43.3287 430.938 45.0697 429.322C47.3984 426.991 49.1562 423.679 49.1562 419.875C49.1562 412.928 43.4384 407.196 36.5 407.261ZM36.5 410.074C41.9352 409.998 46.3438 414.447 46.3438 419.875C46.3438 422.82 44.9797 425.413 43.0911 427.3L43.1361 427.345C41.2593 429.076 40.0457 431.407 39.7048 433.938H33.5539C33.2445 431.527 32.2109 429.194 30.2577 427.521C27.7728 425.412 26.292 422.233 26.787 418.645C27.4016 414.215 30.9959 410.653 35.4003 410.165C35.7639 410.114 36.1302 410.084 36.4972 410.075L36.5 410.074ZM16.8125 419.875V422.688H21.0312V419.875H16.8125ZM51.9688 419.875V422.688H56.1875V419.875H51.9688ZM24.5469 431.257L21.6022 434.201L23.5808 436.179L26.5227 433.234L24.5469 431.257ZM48.4531 431.257L46.4759 433.234L49.4192 436.179L51.3978 434.201L48.4531 431.257ZM33.6875 436.75H39.3125V439.563H33.6875V436.75Z" fill="#838383" fill-opacity="0.37"/>
<defs>
<clipPath id="clip0_589_5">
<rect width="59.1853" height="59.1853" fill="white" transform="translate(414.525 239.943)"/>
</clipPath>
<clipPath id="clip1_589_5">
<rect width="63.4128" height="63.4128" fill="white" transform="translate(471 10)"/>
</clipPath>
<clipPath id="clip2_589_5">
<rect width="72.9248" height="72.9248" fill="white" transform="translate(42 450)"/>
</clipPath>
<clipPath id="clip3_589_5">
<rect width="41.2183" height="45.4459" fill="white" transform="translate(9 177)"/>
</clipPath>
<clipPath id="clip4_589_5">
<rect width="44.389" height="44.389" fill="white" transform="translate(335.259 269.505)"/>
</clipPath>
<clipPath id="clip5_589_5">
<rect width="45" height="45" fill="white" transform="translate(151 237.943)"/>
</clipPath>
<clipPath id="clip6_589_5">
<rect width="48" height="48" fill="white" transform="translate(498 279)"/>
</clipPath>
</defs>
</svg>
